<svg id="Capa_1" data-name="Capa 1" xmlns="http://www.w3.org/2000/svg" viewBox="0 0 222.93 220.78"><defs><style>.cls-1{fill:#636363;}</style></defs><title>calendar</title><path class="cls-1" d="M142,170.06c-3.49,0-7,.09-10.46,0-4.5-.14-7.14-2.08-7.14-6.28,0-4.41,0-44.07,0-48.47-.06-4.17,2.37-6.37,6.91-6.47,7.3-.16,14.61-.13,21.92,0,4.31.07,6.82,2.2,6.94,6.06.15,4.55.14,44.36,0,48.91-.11,4-2.6,6.21-7.21,6.28-3.65.06-7.31,0-11,0" transform="translate(0 0)"/><path class="cls-1" d="M80.55,170.07c-3.47,0-7,.1-10.42,0-5-.18-7.22-2.11-7.34-6.53-.11-4.24-.09-43.74,0-48,.1-4.57,2-6.58,7.08-6.72,7.11-.19,14.24-.17,21.35,0,5.13.12,7.24,2,7.39,6.51s.11,44,0,48.42c-.08,4.06-2.61,6.18-7.14,6.32-3.63.11-7.28,0-10.92,0" transform="translate(0 0)"/><path class="cls-1" d="M222.92,106.2q0-26.42,0-52.82c0-9.33-2.9-16.87-8.11-22.09a22.74,22.74,0,0,0-1.86-1.68l-.22-.19-.49-.37-.71-.53,0,0c-4.9-3.46-11.24-5.36-18.73-5.41h-1.42c-5,0-9.94,0-15.21,0h-1.07c0-4.88.11-9.18,0-13.47-.19-6.42-2.84-9.27-9.09-9.47l-.83,0-.47,0H164q-7.08-.16-14.16,0l-2.15,0c-.49,0-1,.05-1.41.09-3.16.23-5.3,1.27-6.59,3.21A11.82,11.82,0,0,0,137.8,10c-.09,2.17,0,4.34,0,6.5,0,2,0,3.94,0,6.23H85.14V16.52c0-2.16.07-4.33,0-6.5a11.9,11.9,0,0,0-1.88-6.61C82,1.47,79.82.43,76.66.2c-.45,0-.92-.08-1.41-.09L73.1.08Q66-.08,58.94.09H58.3l-.47,0L57,.14c-6.25.2-8.9,3.05-9.1,9.47-.13,4.29,0,8.59,0,13.47H46.81c-5.27,0-10.26,0-15.21,0H30.18c-7.49.05-13.83,1.95-18.73,5.41l0,0-.72.53-.48.37-.22.19a22.74,22.74,0,0,0-1.86,1.68C2.92,36.51,0,44.05,0,53.38q0,26.4,0,52.8,0,41.61,0,83.23c0,20.06,11.26,31.34,31.16,31.36q40.14,0,80.27,0t80.28,0c19.9,0,31.14-11.3,31.16-31.36q0-41.61,0-83.21m-19-18.64q0,50.49,0,101c0,10.67-3.22,13.85-14.06,13.86q-39.21,0-78.4,0t-78.39,0c-10.84,0-14-3.19-14.06-13.86q0-50.49,0-101V81.73H203.92Z" transform="translate(0 0)"/></svg>