<svg id="Capa_1" data-name="Capa 1" xmlns="http://www.w3.org/2000/svg" viewBox="0 0 266.52 230.2"><defs><style>.cls-1{fill:#fff;}</style></defs><title>cart</title><path class="cls-1" d="M64.74,37.67h6.5c59.49,0,119,.48,178.46-.31C267,37.13,269.29,47,264,61.5,259.83,73,253.53,83.72,248.17,94.78c-9.57,19.73-19.25,39.4-28.64,59.22-2.74,5.79-6.47,8.37-13.11,8.34-47.19-.21-94.38-.12-141.57-.11-8.53,0-13.19,3.75-14.67,11.73s2.13,14.61,9.83,17.62a13.37,13.37,0,0,0,1.18-1.91c4.7-11.45,13.43-17.53,25.56-18.36,13-.89,22.33,5.52,28.17,16.75,1.69,3.26,3.48,4,6.75,4q17.2-.24,34.4,0c3,.05,4.26-.93,5.2-3.75a29.56,29.56,0,1,1,3.15,25.37c-1.94-3.15-3.93-4.18-7.49-4.11-12.13.21-24.26.15-36.39,0-2.67,0-4,.81-5.23,3.3C109.67,224,100.83,230.42,88,230.19c-12.61-.23-21.09-6.74-26.73-17.65-.71-1.38-2.25-3-3.64-3.26C45.25,207.1,37.67,199.2,34,188.05c-4-12.24-2.48-24.37,7.16-33.73,4.53-4.41,5.74-8.76,5.7-14.72-.25-34.25-.19-68.49,0-102.73,0-3.78-1.08-5.4-4.69-6.65C30.55,26.24,19,22,7.68,17.32A14.56,14.56,0,0,1,.26,10.16C-.61,8,.85,3.4,2.8,2A12.42,12.42,0,0,1,12.34.34c7.17,2,14,5.07,21,7.71C41.13,11,48.91,13.9,56.66,16.87c6.36,2.42,8,4.8,8.07,11.52,0,2.81,0,5.61,0,9.28M65,144.15c1.38.12,2.21.25,3,.25q66.29,0,132.58.1c3.12,0,4.34-1.35,5.53-3.81q19.45-40.35,39-80.64c.62-1.28,1.08-2.64,1.68-4.11H65Zm124,65.31a11.7,11.7,0,1,0-11.7-11.67A11.75,11.75,0,0,0,189,209.46m-100.73,3a11.7,11.7,0,1,0-11.7-11.72,11.72,11.72,0,0,0,11.7,11.72" transform="translate(0 0)"/></svg>