<svg id="Capa_1" data-name="Capa 1" xmlns="http://www.w3.org/2000/svg" xmlns:xlink="http://www.w3.org/1999/xlink" viewBox="0 0 248.81 160.64"><defs><style>.cls-1{fill:none;}.cls-2{clip-path:url(#clip-path);}.cls-3{fill:#010101;}.cls-4{fill:#ed1c24;}</style><clipPath id="clip-path" transform="translate(0 0)"><rect class="cls-1" width="248.81" height="160.64"/></clipPath></defs><title>logo-siso</title><g class="cls-2"><path class="cls-3" d="M73.14,17.42V16.21c0-1.34.61-2.31,3-2.31,2.19,0,3,1,3,2.31v1.21c0,1.34-.79,2.31-3,2.31-2.37,0-3-1-3-2.31m0,40.8v-32c0-1.34.61-2.31,3-2.31,2.19,0,3,1,3,2.31v32c0,1.34-.79,2.32-3,2.32-2.37,0-3-1-3-2.32" transform="translate(0 0)"/><path class="cls-3" d="M105.06,33.29V31.77c0-2.37-1.58-3.1-6.57-3.1s-6.63.73-6.63,3.1V36.7c0,2.43,1.59,3.16,6.63,3.16,8.58,0,12.53,2.86,12.53,7.91v4.8c0,5-4,8-12.53,8s-12.58-2.92-12.58-8v-1.4c0-1.28.6-2.31,3-2.31s2.91.85,2.91,2.31v1.4c0,2.43,1.59,3.16,6.63,3.16s6.57-.73,6.57-3.16v-4.8c0-2.37-1.58-3.1-6.57-3.1-8.63,0-12.58-2.92-12.58-8V31.77c0-5,4-7.9,12.58-7.9S111,26.73,111,31.77v1.52c0,1.28-.61,2.31-3,2.31s-3-.79-3-2.31" transform="translate(0 0)"/><path class="cls-3" d="M142.94,31.83V52.57c0,5-3.95,8-12.53,8s-12.58-2.92-12.58-8V31.83c0-5,4-7.9,12.58-7.9s12.53,2.86,12.53,7.9m-6,20.74V31.83c0-2.37-1.58-3.1-6.57-3.1s-6.62.73-6.62,3.1V52.57c0,2.43,1.58,3.16,6.62,3.16S137,55,137,52.57" transform="translate(0 0)"/><path class="cls-3" d="M218,65.81a7.33,7.33,0,0,1,2.84.55,7.17,7.17,0,0,1,3.93,3.94,7.34,7.34,0,0,1,.55,2.82,7.24,7.24,0,0,1-.54,2.8,6.72,6.72,0,0,1-1.57,2.31,7.79,7.79,0,0,1-2.42,1.62,7.16,7.16,0,0,1-5.55,0,7.47,7.47,0,0,1-2.37-1.62,7.21,7.21,0,0,1-1.6-2.36,7.07,7.07,0,0,1-.56-2.77,7.3,7.3,0,0,1,.56-2.81,7.42,7.42,0,0,1,1.62-2.41,6.76,6.76,0,0,1,2.31-1.55,7.27,7.27,0,0,1,2.8-.54m5.82,7.31a5.82,5.82,0,0,0-.43-2.23A5.61,5.61,0,0,0,222.11,69,5.62,5.62,0,0,0,218,67.31a6,6,0,0,0-2.24.42A5.42,5.42,0,0,0,213.92,69a5.78,5.78,0,0,0-1.28,1.91,5.74,5.74,0,0,0,0,4.43,5.84,5.84,0,0,0,1.27,1.88,5.77,5.77,0,0,0,6.32,1.28,6,6,0,0,0,1.91-1.3,5.32,5.32,0,0,0,1.25-1.84,5.85,5.85,0,0,0,.42-2.22M218.08,69a4.67,4.67,0,0,1,2.57.59,2,2,0,0,1,.89,1.73,2.1,2.1,0,0,1-.42,1.31,2.4,2.4,0,0,1-1.17.82l1.73,3.45H219l-1.41-3h-.24v3h-2.49V69Zm-.38,1.54h-.38v1.88h.52a1.29,1.29,0,0,0,.85-.24.85.85,0,0,0,.29-.71.81.81,0,0,0-.3-.7,1.71,1.71,0,0,0-1-.23" transform="translate(0 0)"/><path class="cls-3" d="M88.51,126.3A4.79,4.79,0,0,1,87,126a11.29,11.29,0,0,1-4.84,1q-5.39,0-8.16-2.14t-2.79-6.88V112a12.67,12.67,0,0,1,1.33-6.24,11.47,11.47,0,0,1,3.6-3.93h-.64a4.21,4.21,0,0,1-2.51-.75,2.17,2.17,0,0,1-1-1.82V90.72q0-10.57,13-10.58,13.23,0,13.24,10.58v29.54a8.44,8.44,0,0,0,.22,2.21,4.57,4.57,0,0,1,.23,1.32,2.17,2.17,0,0,1-1,1.8,4.11,4.11,0,0,1-2.51.71Zm6.66-2.58a10.37,10.37,0,0,1-.45-3.46V90.72q0-7.93-9.77-7.93-9.48,0-9.49,7.93v8.54h6.39V90.78a2.9,2.9,0,0,1,.55-1.89c.36-.46,1.15-.68,2.37-.68,2,0,2.92.86,2.92,2.57v9.08c-1.82.64-3.53,1.26-5.11,1.87A17,17,0,0,0,78.43,104a9.24,9.24,0,0,0-2.78,3.25,10.28,10.28,0,0,0-1,4.78v5.89q0,3.39,1.92,4.88a8.88,8.88,0,0,0,5.56,1.49,8,8,0,0,0,3.56-.71,6.62,6.62,0,0,0,2.47-2.06,5.34,5.34,0,0,0,.36,2.23Zm-7.48-6.44a3,3,0,0,1-2.92,1.7c-2,0-2.92-.82-2.92-2.44V112.4q0-1.62.09-2.88a5.15,5.15,0,0,1,.64-2.2,5,5,0,0,1,1.73-1.69,13.13,13.13,0,0,1,3.38-1.36Z" transform="translate(0 0)"/><path class="cls-3" d="M108.31,126.3a4,4,0,0,1-2.46-.75,2.22,2.22,0,0,1-1-1.83v-33A3.66,3.66,0,0,1,103,89.8a2.18,2.18,0,0,1-.78-1.66V83.39a2,2,0,0,1,.78-1.55,4.26,4.26,0,0,1,1.87-1v-3a13.6,13.6,0,0,1,.64-4.27,8.41,8.41,0,0,1,2.05-3.39,9.31,9.31,0,0,1,3.7-2.2,17.29,17.29,0,0,1,5.56-.78c.79,0,1.63,0,2.51.1a14.32,14.32,0,0,1,2.47.4,4.89,4.89,0,0,1,1.87.92,2,2,0,0,1,.73,1.56v4.67a2.29,2.29,0,0,1-1,1.94,4,4,0,0,1-2.42.71,4.63,4.63,0,0,1-1.46-.21h-.46v3.53h1.65a4.06,4.06,0,0,1,2.46.74,2.22,2.22,0,0,1,1,1.83v4.75a2.27,2.27,0,0,1-1,1.9,4.06,4.06,0,0,1-2.46.74h-1.65v32.94a2.22,2.22,0,0,1-1,1.83,4,4,0,0,1-2.46.75Zm7.31-2.58V88.14h5.11V83.39h-5.11V78c0-1.4.36-2.29,1.09-2.67a6.68,6.68,0,0,1,3.1-.58,2.93,2.93,0,0,1,1.1.13V70.18a24.25,24.25,0,0,0-4.11-.34c-3.16,0-5.37.75-6.61,2.24a8.66,8.66,0,0,0-1.88,5.76v5.55h-2.55v4.75h2.55v35.58Z" transform="translate(0 0)"/><path class="cls-3" d="M154.31,104.34a1.78,1.78,0,0,1-.18.78l-.37.71.37.71a1.78,1.78,0,0,1,.18.78v8.81q0,10.78-13.32,10.78-13.07,0-13.06-10.78V91.05q0-10.9,13.06-10.91,13.32,0,13.32,10.91ZM144,116.06c0,1.81-1,2.71-3,2.71-1.83,0-2.74-.88-2.74-2.64V104.34h12.59V91.05q0-8.26-9.85-8.26-9.5,0-9.5,8.26v25.08q0,8.13,9.5,8.13,9.85,0,9.85-8.13v-8.81H144Zm0-15.65h-5.75V91.05c0-1.76.91-2.64,2.74-2.64,2,0,3,.88,3,2.64Z" transform="translate(0 0)"/><path class="cls-3" d="M180,124a1.85,1.85,0,0,1-.63,1.49,4.92,4.92,0,0,1-1.56.88,7.61,7.61,0,0,1-2,.45c-.73.06-1.4.1-2,.1q-6.84,0-10.09-2.92a10.28,10.28,0,0,1-3.24-8.06V90.71a3.7,3.7,0,0,1-1.87-.91,2.2,2.2,0,0,1-.77-1.66V83.39a2,2,0,0,1,.77-1.55,4.32,4.32,0,0,1,1.87-1V70.65a2.23,2.23,0,0,1,1-1.83,4.06,4.06,0,0,1,2.46-.74h7.39a4.07,4.07,0,0,1,2.47.74,2.22,2.22,0,0,1,1,1.83V80.82h1.55a4.07,4.07,0,0,1,2.47.74,2.22,2.22,0,0,1,1,1.83v4.75a2.27,2.27,0,0,1-1,1.9,4.07,4.07,0,0,1-2.47.74h-1.55v25.08c0,.77.18,1.15.55,1.15h.27a6.42,6.42,0,0,1,1-.07,3.93,3.93,0,0,1,2.42.72,2.22,2.22,0,0,1,.95,1.86Zm-3.46-4.47a2.3,2.3,0,0,1-.6.07h-.59c-2.68,0-4-1.25-4-3.73V88.14h5V83.39h-5V70.65H164V83.39h-2.55v4.75H164v27.79a7.88,7.88,0,0,0,2.42,6.13q2.41,2.2,7.44,2.2c.48,0,1,0,1.46-.06a9.49,9.49,0,0,0,1.28-.21Z" transform="translate(0 0)"/><path class="cls-3" d="M183.69,127.31a2.21,2.21,0,0,1,1-1.86,4,4,0,0,1,2.42-.71,4.47,4.47,0,0,1,1.14.13A7.79,7.79,0,0,0,190,125c.36,0,.59-.06.68-.17a.8.8,0,0,0,.14-.51v-.41a2.29,2.29,0,0,0-.09-.54l-7.94-40a2.11,2.11,0,0,1,1.05-1.8,4.55,4.55,0,0,1,2.6-.71H194a3.89,3.89,0,0,1,2.29.71,2.71,2.71,0,0,1,1.18,1.66l.55,2.37.46-2.44a2.83,2.83,0,0,1,1-1.62,3.8,3.8,0,0,1,2.51-.68h7a4.37,4.37,0,0,1,2.56.71,2.15,2.15,0,0,1,1,1.8l-7.39,39.24a35.31,35.31,0,0,1-1.42,5.49,11.34,11.34,0,0,1-2.46,4.1,10.64,10.64,0,0,1-4.15,2.58,20.48,20.48,0,0,1-6.66.91c-.86,0-1.68,0-2.47-.1a10.16,10.16,0,0,1-2.14-.41,3.82,3.82,0,0,1-1.55-.88,2,2,0,0,1-.6-1.52Zm3.47,5.43a16.69,16.69,0,0,0,3.29.33,13.67,13.67,0,0,0,4.92-.74,7.84,7.84,0,0,0,3.15-2.17,10.34,10.34,0,0,0,1.92-3.42,41.26,41.26,0,0,0,1.23-4.51L209,83.39h-7c-.6,3.57-1.12,6.73-1.55,9.46s-.79,5.2-1.09,7.39-.6,4.2-.87,6-.53,3.63-.78,5.39c-.18-1.76-.36-3.56-.54-5.39s-.43-3.84-.73-6-.64-4.66-1-7.39S194.55,87,194,83.39h-7.57l7.57,39-.18.89a10.72,10.72,0,0,1-1.14,3.11,2.67,2.67,0,0,1-2.51,1.16,13,13,0,0,1-3-.28Z" transform="translate(0 0)"/><path class="cls-3" d="M0,111.43V94.33c0-3.65,1.74-5.71,8.24-5.71,6.33,0,8.08,2.06,8.08,5.86v17c0,5.55,4,7.77,16.47,7.77,12.67,0,16.64-2.22,16.64-7.77V80.38c0-5.38-4-7.76-16.64-7.76C10.3,72.62.16,65.34.16,52V22.09C.16,8.62,10.3,1.49,32.79,1.49c22.66,0,32.79,7.13,32.79,20.6V39c0,3.8-1.58,5.86-8.08,5.86-6.33,0-8.07-2.06-8.07-5.7V22.09c0-5.55-4-7.77-16.64-7.77-12.51,0-16.47,2.22-16.47,7.77V52c0,5.54,4,7.76,16.47,7.76,22.66,0,32.79,7.45,32.79,20.59v31.05c0,13.47-10.13,20.6-32.79,20.6C10.3,132,0,124.9,0,111.43" transform="translate(0 0)"/><path class="cls-4" d="M182.77,1.29a79.87,79.87,0,0,0-43.64,4.28c.87,1.74,1.68,3.55,2.45,5.43a74.35,74.35,0,1,1-15.66,130.3c-1.09,1.7-2.22,3.33-3.36,4.91A80.31,80.31,0,1,0,182.77,1.29" transform="translate(0 0)"/></g></svg>