<svg id="Capa_1" data-name="Capa 1" xmlns="http://www.w3.org/2000/svg" viewBox="0 0 639.26 94.57"><defs><style>.cls-1{fill:#fff;}</style></defs><title>logo-webcra</title><polygon class="cls-1" points="103.44 8.78 82.86 71.17 61.35 8.87 54.08 8.78 31.9 71.17 12.27 8.78 0 8.78 28.22 92.69 34.63 92.69 57.48 29.17 80.04 92.69 86.45 92.69 115.9 8.78 103.44 8.78"/><path class="cls-1" d="M142.05,28.79c6.42,0,11.79,1.32,16,4a25.53,25.53,0,0,1,9.62,10.85,36.25,36.25,0,0,1,3.21,15.58v6.13H122.79a23.39,23.39,0,0,0,3.59,9.63,21.51,21.51,0,0,0,7.55,7,21.79,21.79,0,0,0,10.66,2.54,24.94,24.94,0,0,0,12.65-3.39,44.5,44.5,0,0,0,9.91-7.55l-.09,11.13a23.23,23.23,0,0,1-5.19,4.44A34.63,34.63,0,0,1,153.94,93a27.74,27.74,0,0,1-9.35,1.6A31.63,31.63,0,0,1,127.7,90a32.92,32.92,0,0,1-11.61-12,32.4,32.4,0,0,1-4.15-16.33,35.71,35.71,0,0,1,3.87-16.43,30,30,0,0,1,10.76-12,26.9,26.9,0,0,1,15.48-4.53m0,10A16.74,16.74,0,0,0,129.3,44a23.12,23.12,0,0,0-6.23,12.56h37.76a20.81,20.81,0,0,0-3.39-10,19.21,19.21,0,0,0-6.8-5.85,21.35,21.35,0,0,0-8.59-1.89" transform="translate(0 0)"/><path class="cls-1" d="M207.08,28.79a29.41,29.41,0,0,1,15.47,4.05,29.1,29.1,0,0,1,10.77,11.62c2.64,5,4,10.94,4,17.93a34.58,34.58,0,0,1-4,16.8,29.89,29.89,0,0,1-10.57,11.32A27,27,0,0,1,208,94.57a22.23,22.23,0,0,1-12.75-3.77A33.1,33.1,0,0,1,186.4,82V92.68H176.12V2.45H186.4v36A27.75,27.75,0,0,1,196,31.34a26.83,26.83,0,0,1,11.05-2.55M205.19,39a17.78,17.78,0,0,0-10.1,2.74,34.35,34.35,0,0,0-8.4,7.55l-.09,12a26.84,26.84,0,0,0,2.54,11.9,20.47,20.47,0,0,0,7.17,8.3,18.16,18.16,0,0,0,10.2,3,19,19,0,0,0,10.66-3,19.27,19.27,0,0,0,7-8,23.7,23.7,0,0,0,2.45-11A25.92,25.92,0,0,0,224.07,51a22,22,0,0,0-7.37-8.69A19.27,19.27,0,0,0,205.19,39" transform="translate(0 0)"/><path class="cls-1" d="M271,28.79A30,30,0,0,1,282.87,31c3.3,1.41,5.66,2.74,6.89,4V45.3a35,35,0,0,0-8-4.53,26.79,26.79,0,0,0-10.77-2A20.67,20.67,0,0,0,259.36,42a22,22,0,0,0-7.73,8.4,24.59,24.59,0,0,0,0,22.56,21.36,21.36,0,0,0,7.73,8.4A20.87,20.87,0,0,0,271,84.57a26.79,26.79,0,0,0,10.77-2,43.8,43.8,0,0,0,8-4.53V88.44c-1.23,1.23-3.59,2.55-6.89,4A30,30,0,0,1,271,94.57,31.63,31.63,0,0,1,254.08,90a32.92,32.92,0,0,1-11.61-12,32.48,32.48,0,0,1-4.25-16.33,32.82,32.82,0,0,1,4.25-16.43A32.08,32.08,0,0,1,271,28.79" transform="translate(0 0)"/><path class="cls-1" d="M305.33,30V42.57a32.61,32.61,0,0,1,8.77-10,17.89,17.89,0,0,1,10.49-3.77A15.76,15.76,0,0,1,331.1,30v11.9a15.41,15.41,0,0,0-8-2.36,12.89,12.89,0,0,0-10.29,4.53,65,65,0,0,0-7.45,10.76V92.68H295V30Z" transform="translate(0 0)"/><path class="cls-1" d="M358.56,28.79c6.42,0,11.8,1.32,16.05,4a25.56,25.56,0,0,1,9.63,10.85,36.39,36.39,0,0,1,3.2,15.58v6.13H339.3a23.27,23.27,0,0,0,3.6,9.63,21.42,21.42,0,0,0,7.55,7,21.79,21.79,0,0,0,10.66,2.54,25,25,0,0,0,12.65-3.39,44.27,44.27,0,0,0,9.91-7.55l-.1,11.13a23.15,23.15,0,0,1-5.18,4.44A35,35,0,0,1,370.46,93a27.74,27.74,0,0,1-9.35,1.6A31.65,31.65,0,0,1,344.22,90a32.77,32.77,0,0,1-11.61-12,32.3,32.3,0,0,1-4.16-16.33,35.71,35.71,0,0,1,3.87-16.43,30.51,30.51,0,0,1,10.67-12,27.42,27.42,0,0,1,15.57-4.53m0,10A16.74,16.74,0,0,0,345.82,44a23,23,0,0,0-6.22,12.56h37.75a19.76,19.76,0,0,0-3.5-10,19,19,0,0,0-6.79-5.85,20.58,20.58,0,0,0-8.5-1.89" transform="translate(0 0)"/><path class="cls-1" d="M418.59,28.79a26,26,0,0,1,11,2.55,29.52,29.52,0,0,1,9.62,7.07V30h10.29V92.69H439.16V82a31.31,31.31,0,0,1-8.87,8.78,21.75,21.75,0,0,1-12.73,3.77,27.09,27.09,0,0,1-14.63-4.06,29.74,29.74,0,0,1-10.57-11.32,34.48,34.48,0,0,1-4-16.8,38,38,0,0,1,4-17.93,28.52,28.52,0,0,1,10.85-11.61,29.23,29.23,0,0,1,15.38-4.06m1.89,10A19.3,19.3,0,0,0,409,42.19a22.43,22.43,0,0,0-7.35,8.68,26.28,26.28,0,0,0-2.56,11.42,24.09,24.09,0,0,0,2.56,11.05,21,21,0,0,0,7.07,8.11,18.92,18.92,0,0,0,10.57,3,18.24,18.24,0,0,0,10.29-3,21.26,21.26,0,0,0,7.17-8.3,25.05,25.05,0,0,0,2.45-12l-.08-12a31.52,31.52,0,0,0-8.31-7.64,20.28,20.28,0,0,0-10.29-2.74" transform="translate(0 0)"/><path class="cls-1" d="M476.45,12V30h18.31v9.63H476.45V76.36a9.05,9.05,0,0,0,2,6.13c1.32,1.51,3.4,2.27,6.14,2.27a16.66,16.66,0,0,0,6.23-1,26.72,26.72,0,0,0,4.34-2.07v8.4a25.6,25.6,0,0,1-5.29,3.21,20.74,20.74,0,0,1-7.54,1.22c-5.39,0-9.35-1.6-12.09-4.81s-4.06-7.46-4.06-12.84V39.74h-12v-3a24.81,24.81,0,0,0,10.29-9.07,70,70,0,0,0,7.27-15.57h4.72Z" transform="translate(0 0)"/><path class="cls-1" d="M518.26,30V92.69H508V39.74h-9.91V30.11h20.2ZM511.84,0a7.89,7.89,0,0,1,6,2.55,8.3,8.3,0,0,1,0,11.8,7.81,7.81,0,0,1-6,2.64,7.66,7.66,0,0,1-6-2.64,8.55,8.55,0,0,1-2.46-5.85,8.42,8.42,0,0,1,2.46-5.95,7.89,7.89,0,0,1,6-2.55" transform="translate(0 0)"/><polygon class="cls-1" points="584.14 30.01 554.69 92.69 548.28 92.69 520.06 30.01 532.33 30.01 551.2 76.07 571.78 30.01 584.14 30.01"/><path class="cls-1" d="M608.39,28.79a26.06,26.06,0,0,1,11,2.55A29.63,29.63,0,0,1,629,38.41V30h10.29V92.69H629V82a31.44,31.44,0,0,1-8.87,8.78,21.78,21.78,0,0,1-12.74,3.77,27.09,27.09,0,0,1-14.63-4.06,29.82,29.82,0,0,1-10.57-11.32,34.59,34.59,0,0,1-4-16.8,38.11,38.11,0,0,1,4-17.93A28.61,28.61,0,0,1,593,32.85a29.22,29.22,0,0,1,15.37-4.06m1.9,10a19.09,19.09,0,0,0-11.52,3.4,22.54,22.54,0,0,0-7.36,8.68,26.27,26.27,0,0,0-2.55,11.42,24.08,24.08,0,0,0,2.55,11.05,21,21,0,0,0,7.08,8.11,18.92,18.92,0,0,0,10.57,3,18.24,18.24,0,0,0,10.29-3,21.42,21.42,0,0,0,7.17-8.3,26.33,26.33,0,0,0,2.55-12l-.1-12a31.06,31.06,0,0,0-8.31-7.64,20.52,20.52,0,0,0-10.37-2.74" transform="translate(0 0)"/></svg>