<svg id="Capa_1" data-name="Capa 1" xmlns="http://www.w3.org/2000/svg" viewBox="0 0 249.44 142.83"><defs><style>.cls-1{fill:#fff;}</style></defs><title>mascara</title><path class="cls-1" d="M80.33,110.42C74.61,112.34,69.25,114,64,116c-.92.36-1.71,2.21-1.8,3.43-.75,9.86-4.88,15.27-14.23,18.21-4.13,1.29-8.28,2.52-12.43,3.74-11.51,3.39-20.29-1.23-23.44-12.84-3.23-11.88-6-23.9-8.94-35.86C2.35,89.32,1.49,85.93.71,82.53-2,70.94,3.08,62.08,14.39,58.56c3.5-1.09,7-2.14,10.52-3.19C37.63,51.58,43.54,54,50.08,66l15.61-5.11c-.69-2.8-1.23-5.2-1.87-7.57C60.28,40.16,64,29.71,75.4,22.16,83.59,16.74,92,11.54,100.52,6.73c15.91-8.94,32.15-9,48.08-.1,8.87,4.94,17.5,10.35,26,16,10.7,7.06,14.44,18,11,30.5-.66,2.39-1.24,4.79-2,7.63,2.78,1,5.37,1.95,8,2.84s5,1.59,7.81,2.45c1-1.81,1.83-3.59,2.9-5.22,3.95-6,10.94-8.47,18.5-6.44,4.82,1.29,9.57,2.83,14.35,4.29,10.78,3.31,16.22,12.21,13.66,23.15q-5.4,23.1-11.4,46.05c-3.25,12.44-11.91,17-24.33,13.35-4.47-1.32-9-2.56-13.37-4.1-7.84-2.75-12.32-8.66-12.43-16.86,0-2.88-.92-4.09-3.61-4.85-4.77-1.35-9.43-3.08-14.63-4.82-1.28,4.21-2.43,8.14-3.67,12-3.81,11.94-13.86,19.74-26.36,20.06q-14.23.36-28.49,0c-12.77-.29-22.9-8.17-26.63-20.35-1.16-3.78-2.27-7.57-3.56-11.89m44.23,14.45c4.16,0,8.33.06,12.49,0,6.82-.12,9.85-2.27,11.71-8.64,6.57-22.53,13-45.1,19.65-67.61,1.52-5.15.14-8.8-4.19-11.55-7.88-5-15.64-10.18-23.74-14.79-10.13-5.76-20.72-6.12-30.94-.25-8.51,4.89-16.7,10.35-25,15.59-3.87,2.45-5.1,5.86-3.8,10.31C87.39,70.77,94,93.65,100.66,116.49c1.76,6,4.71,8.16,10.9,8.35,4.33.13,8.67,0,13,0m-80-4.82c-4-16.18-7.93-32.13-12-48.47L17.43,76.23c4.1,16.47,8.05,32.31,12,48.31l15.13-4.49m160.47.31,15,4.17C223.94,108,227.65,92.21,231.45,76l-14.86-4.31c-3.89,16.41-7.67,32.36-11.53,48.68M53.88,83.65C55.37,89.15,56.67,94,58,99l17.34-5.74L70.79,77.91,53.88,83.65m137.5,15.51c1.4-5.52,2.64-10.39,3.93-15.49L178.41,78c-1.53,5.31-2.94,10.18-4.45,15.37l17.42,5.78" transform="translate(0 0)"/></svg>