<svg id="Capa_1" data-name="Capa 1" xmlns="http://www.w3.org/2000/svg" viewBox="0 0 224.35 273.73"><defs><style>.cls-1{fill:#ee704e;}</style></defs><title>ubicacion</title><path class="cls-1" d="M112.09,273.73c-14.5-18.7-28.63-37-42.93-55.2a20.21,20.21,0,0,0-6.8-5.52C23,193.81-1.41,151.94.06,108.27,1.78,57.36,38.66,12.74,88.91,2.59,128.13-5.34,162.8,5,191.19,33.08c44.16,43.75,44.08,114.05.54,158.17a110.65,110.65,0,0,1-30.19,21.88,19,19,0,0,0-6.39,5.23c-13.24,16.91-26.31,34-39.45,50.95-1.09,1.41-2.25,2.76-3.61,4.42M68.48,112.14a43.55,43.55,0,1,0,43.61-43.46,43.57,43.57,0,0,0-43.61,43.46" transform="translate(0 0)"/></svg>