<svg id="Capa_1" data-name="Capa 1" xmlns="http://www.w3.org/2000/svg" viewBox="0 0 257.04 285.35"><defs><style>.cls-1{fill:#fff;}</style></defs><title>up</title><path class="cls-1" d="M0,142.52q0-26,0-52c0-15,6.4-26.15,19.45-33.6q44.69-25.5,89.28-51.16C122.1-2,135-1.91,148.4,5.83,178.07,23,207.93,39.91,237.65,57,250.54,64.47,257.07,75.7,257,90.72q-.09,51.73,0,103.45c0,14.89-6,26.16-19.22,33.69q-44.67,25.51-89.08,51.5c-13.7,8-26.86,8-40.54-.05-29.58-17.35-59.33-34.42-89-51.54C6.28,220.36,0,209.24,0,194.49q0-26,0-52m17.86,0c0,17.16.18,34.32-.08,51.47-.13,8.79,3.49,14.81,11,19.13Q73,238.46,117.05,264.06c7.81,4.54,15.31,4.44,23.09-.08Q184,238.52,228,213.31c7.71-4.41,11.35-10.47,11.29-19.47q-.31-51,0-101.94c.06-9-3.5-15.12-11.17-19.54q-44.39-25.5-88.61-51.29c-7.28-4.22-14.46-4.31-21.75-.1Q73.18,46.69,28.6,72.36c-7.31,4.2-10.94,10.11-10.81,18.72.25,17.16.07,34.32.07,51.47" transform="translate(0 0)"/><path class="cls-1" d="M128.38,174.71c-12,0-24-.1-36,0-5.16.06-9.09-1.7-11.55-6.28s-1.69-8.91,1.13-13.14c11.89-17.86,23.65-35.82,35.61-53.63,6-9,15.44-8.95,21.56.07,12.12,17.91,24,36,36.07,53.93,2.85,4.25,3.5,8.56.86,13.1-2.5,4.32-6.33,6-11.26,5.94-12.15-.12-24.3,0-36.46,0" transform="translate(0 0)"/></svg>