<svg id="Capa_1" data-name="Capa 1" xmlns="http://www.w3.org/2000/svg" viewBox="0 0 492.26 491.47"><defs><style>.cls-1{fill:#fff;}</style></defs><title>wpp</title><path class="cls-1" d="M22.18,472.35c6.9-27.85,13.5-54.83,20.34-81.76a10.47,10.47,0,0,0-1.58-9.25C-47.6,246.74,13.33,65.2,167.31,13.22,295.81-30.15,433.55,36.48,477.16,165c33.24,97.91,11.23,185.85-62.43,258.63-49.09,48.51-110.11,70-179,67.72-44.42-1.47-85.44-14.77-122.75-39-4.63-3-8.45-3.67-13.73-2.08-24.06,7.26-48.26,14.07-72.41,21-1.24.36-2.51.6-4.61,1.08M322.73,377.7c5.32-.58,12.83-1,20.19-2.28,29.68-5.16,45.25-22.62,46.82-51.57.52-9.46-2.74-16.86-10.82-21.46-14.3-8.14-28.66-16.27-43.47-23.42-12.06-5.82-20.4-3.55-29.73,6.11q-12,12.39-23.75,25c-2,2.12-3.67,2.58-6.46,1.37-24.77-10.69-47.87-24.1-68.25-41.91-16.37-14.3-29.92-30.75-38.21-51.14-1.08-2.65-1.08-4.5,1-6.66,4.49-4.69,8.36-10,13.11-14.4,9.43-8.73,12-19.26,7.86-30.9-6.34-17.67-13-35.29-20.62-52.42-5.8-13-20.67-17.74-33.5-11.28-25.63,12.91-53.87,41.89-40.8,84.55,25.43,83,76.6,142.4,157.69,174.8,21.36,8.53,43.44,14.95,69,15.63" transform="translate(0 0)"/></svg>